<svg width="458" height="145" viewBox="0 0 458 145" fill="none" xmlns="http://www.w3.org/2000/svg">
<g filter="url(#filter0_d_407_8)">
<path d="M10.7344 113V46.3438H0.9375V30.5H37.0312V46.3438H27.2344V113H10.7344ZM43.755 113V30.5H59.6925V113H43.755ZM76.2131 113V46.3438H66.4163V30.5H102.51V46.3438H92.7131V113H76.2131ZM106.515 113L114.484 30.5H142.468L150.296 113H134.687L133.515 99.6875H123.577L122.546 113H106.515ZM124.749 86.5156H132.249L128.64 44.5625H127.89L124.749 86.5156ZM158.239 113V30.5H175.208L182.801 70.0156V30.5H198.739V113H182.614L174.364 71.75V113H158.239Z" fill="#1660FF"/>
</g>
<g filter="url(#filter1_d_407_8)">
<path d="M217.523 65V30.625H231.273V37.2656H224.516V43.9648H231V50.4297H224.516V58.3008H231.723V65H217.523ZM235.208 65V30.625H242.278L245.442 47.0898V30.625H252.083V65H245.364L241.927 47.8125V65H235.208ZM263.42 65.3125C258.511 65.3125 256.056 61.7969 256.056 54.7656V39.9414C256.056 33.5221 258.869 30.3125 264.494 30.3125C266.811 30.3125 268.589 30.7812 269.826 31.7188C271.063 32.6432 271.916 33.9974 272.384 35.7812C272.853 37.5651 273.088 39.7396 273.088 42.3047H266.369V39.2578C266.369 38.5156 266.265 37.8971 266.056 37.4023C265.861 36.8945 265.444 36.6406 264.806 36.6406C264.012 36.6406 263.485 36.9076 263.224 37.4414C262.977 37.9753 262.853 38.5612 262.853 39.1992V55.8594C262.853 56.7839 262.97 57.5391 263.205 58.125C263.452 58.6979 263.927 58.9844 264.63 58.9844C265.36 58.9844 265.841 58.6979 266.076 58.125C266.323 57.5391 266.447 56.7708 266.447 55.8203V50.918H264.611V44.9805H273.009V65H270.255L269.084 62.1094C267.886 64.2448 265.998 65.3125 263.42 65.3125ZM276.944 65V30.625H290.694V37.2656H283.936V43.9648H290.42V50.4297H283.936V58.3008H291.143V65H276.944ZM294.628 65V30.625H301.698L304.863 47.0898V30.625H311.503V65H304.784L301.347 47.8125V65H294.628ZM315.75 65V30.625H322.586V42.9102H325.828V30.625H332.664V65H325.828V49.4141H322.586V65H315.75ZM335.973 65L339.294 30.625H350.954L354.216 65H347.712L347.223 59.4531H343.083L342.653 65H335.973ZM343.571 53.9648H346.696L345.192 36.4844H344.88L343.571 53.9648ZM357.525 65V30.625H368.072C369.83 30.625 371.158 31.0286 372.056 31.8359C372.955 32.6302 373.554 33.75 373.853 35.1953C374.166 36.6276 374.322 38.3138 374.322 40.2539C374.322 42.1289 374.081 43.6263 373.599 44.7461C373.13 45.8659 372.239 46.6406 370.923 47.0703C372.004 47.2917 372.759 47.832 373.189 48.6914C373.632 49.5378 373.853 50.638 373.853 51.9922V65H367.076V51.543C367.076 50.5404 366.867 49.9219 366.451 49.6875C366.047 49.4401 365.39 49.3164 364.478 49.3164V65H357.525ZM364.517 43.3594H366.177C367.128 43.3594 367.603 42.3242 367.603 40.2539C367.603 38.9128 367.499 38.0339 367.291 37.6172C367.082 37.2005 366.692 36.9922 366.119 36.9922H364.517V43.3594ZM377.475 65V30.625H384.116V65H377.475ZM387.113 65L390.433 30.625H402.093L405.355 65H398.851L398.363 59.4531H394.222L393.792 65H387.113ZM394.71 53.9648H397.835L396.331 36.4844H396.019L394.71 53.9648ZM425.255 65.4102C423.119 65.4102 421.44 64.5833 420.216 62.9297C419.005 61.276 418.399 58.9974 418.399 56.0938C418.399 54.0234 418.582 52.3047 418.946 50.9375C419.324 49.5703 419.845 48.431 420.509 47.5195C421.173 46.6081 421.934 45.8138 422.794 45.1367L422.637 44.7461C422.091 43.3919 421.609 42.1029 421.192 40.8789C420.789 39.6419 420.587 38.3724 420.587 37.0703C420.587 35.7552 420.867 34.5898 421.427 33.5742C421.986 32.5586 422.761 31.7643 423.751 31.1914C424.753 30.6055 425.899 30.3125 427.188 30.3125C428.464 30.3125 429.623 30.5924 430.665 31.1523C431.72 31.6992 432.559 32.526 433.184 33.6328C433.809 34.7396 434.122 36.1393 434.122 37.832C434.122 39.668 433.777 41.2044 433.087 42.4414C432.41 43.6784 431.387 44.8698 430.02 46.0156L431.895 50.7422C432.664 48.8021 433.77 47.2982 435.216 46.2305L437.93 50.4688C436.42 51.6797 435.157 53.6523 434.141 56.3867L437.579 65H430.938L430.177 63.1445C429.669 63.7695 428.985 64.3034 428.126 64.7461C427.279 65.1888 426.322 65.4102 425.255 65.4102ZM426.72 36.4648C426.72 36.8034 426.804 37.3047 426.973 37.9688C427.143 38.6198 427.54 39.7526 428.165 41.3672C428.412 41.1068 428.634 40.6966 428.829 40.1367C429.024 39.5768 429.122 38.8086 429.122 37.832C429.122 36.8294 428.998 36.1263 428.751 35.7227C428.516 35.319 428.204 35.1172 427.813 35.1172C427.436 35.1172 427.156 35.2604 426.973 35.5469C426.804 35.8203 426.72 36.1263 426.72 36.4648ZM424.376 56.9336C424.376 59.2513 425.033 60.4102 426.348 60.4102C426.882 60.4102 427.312 60.2148 427.637 59.8242C427.963 59.4206 428.184 59.0039 428.302 58.5742L425.02 50.5859C424.591 51.4974 424.376 53.0924 424.376 55.3711V56.9336ZM225.531 113.312C223.044 113.312 221.039 112.538 219.516 110.988C218.005 109.439 217.25 107.271 217.25 104.484V88.625C217.25 85.2917 217.908 82.7396 219.223 80.9688C220.551 79.1979 222.706 78.3125 225.688 78.3125C227.315 78.3125 228.76 78.612 230.023 79.2109C231.299 79.8099 232.302 80.7083 233.031 81.9062C233.76 83.0911 234.125 84.5885 234.125 86.3984V92.3359H227.289V87.2578C227.289 86.2292 227.159 85.5391 226.898 85.1875C226.638 84.8229 226.234 84.6406 225.688 84.6406C225.049 84.6406 224.62 84.875 224.398 85.3438C224.177 85.7995 224.066 86.4115 224.066 87.1797V104.387C224.066 105.337 224.203 106.008 224.477 106.398C224.763 106.789 225.167 106.984 225.688 106.984C226.273 106.984 226.684 106.743 226.918 106.262C227.165 105.78 227.289 105.155 227.289 104.387V98.1953H234.203V104.699C234.203 107.72 233.441 109.914 231.918 111.281C230.395 112.635 228.266 113.312 225.531 113.312ZM245.911 113.312C243.164 113.312 241.061 112.486 239.602 110.832C238.157 109.165 237.434 106.763 237.434 103.625V87.2969C237.434 84.3542 238.151 82.1211 239.583 80.5977C241.028 79.0742 243.138 78.3125 245.911 78.3125C248.684 78.3125 250.787 79.0742 252.22 80.5977C253.665 82.1211 254.388 84.3542 254.388 87.2969V103.625C254.388 106.763 253.658 109.165 252.2 110.832C250.755 112.486 248.658 113.312 245.911 113.312ZM245.97 106.984C247.011 106.984 247.532 105.975 247.532 103.957V87.1797C247.532 85.487 247.024 84.6406 246.009 84.6406C244.863 84.6406 244.29 85.5065 244.29 87.2383V103.996C244.29 105.064 244.42 105.832 244.68 106.301C244.941 106.757 245.371 106.984 245.97 106.984ZM258.361 113V78.625H265.431L268.595 95.0898V78.625H275.236V113H268.517L265.08 95.8125V113H258.361ZM287.647 113.312C284.509 113.312 282.243 112.531 280.85 110.969C279.47 109.406 278.78 106.919 278.78 103.508V100.148H285.577V104.445C285.577 105.24 285.694 105.865 285.928 106.32C286.176 106.763 286.599 106.984 287.198 106.984C287.823 106.984 288.252 106.802 288.487 106.438C288.734 106.073 288.858 105.474 288.858 104.641C288.858 103.586 288.754 102.707 288.545 102.004C288.337 101.288 287.972 100.611 287.452 99.9727C286.944 99.3216 286.234 98.5664 285.323 97.707L282.237 94.7773C279.932 92.6029 278.78 90.1159 278.78 87.3164C278.78 84.3867 279.457 82.1536 280.811 80.6172C282.178 79.0807 284.151 78.3125 286.729 78.3125C289.88 78.3125 292.113 79.1523 293.428 80.832C294.756 82.5117 295.42 85.0638 295.42 88.4883H288.428V86.125C288.428 85.6562 288.291 85.2917 288.018 85.0312C287.758 84.7708 287.399 84.6406 286.944 84.6406C286.397 84.6406 285.993 84.7969 285.733 85.1094C285.485 85.4089 285.362 85.7995 285.362 86.2812C285.362 86.763 285.492 87.2839 285.752 87.8438C286.013 88.4036 286.527 89.0482 287.295 89.7773L291.26 93.5859C292.054 94.3411 292.784 95.1419 293.448 95.9883C294.112 96.8216 294.646 97.7982 295.049 98.918C295.453 100.025 295.655 101.379 295.655 102.98C295.655 106.21 295.056 108.742 293.858 110.578C292.673 112.401 290.603 113.312 287.647 113.312ZM302.109 113V85.2266H298.027V78.625H313.066V85.2266H308.984V113H302.109ZM316.18 113V78.625H326.727C328.484 78.625 329.812 79.0286 330.711 79.8359C331.609 80.6302 332.208 81.75 332.508 83.1953C332.82 84.6276 332.977 86.3138 332.977 88.2539C332.977 90.1289 332.736 91.6263 332.254 92.7461C331.785 93.8659 330.893 94.6406 329.578 95.0703C330.659 95.2917 331.414 95.832 331.844 96.6914C332.286 97.5378 332.508 98.638 332.508 99.9922V113H325.73V99.543C325.73 98.5404 325.522 97.9219 325.105 97.6875C324.702 97.4401 324.044 97.3164 323.133 97.3164V113H316.18ZM323.172 91.3594H324.832C325.783 91.3594 326.258 90.3242 326.258 88.2539C326.258 86.9128 326.154 86.0339 325.945 85.6172C325.737 85.2005 325.346 84.9922 324.773 84.9922H323.172V91.3594ZM344.391 113.312C341.527 113.312 339.417 112.512 338.063 110.91C336.709 109.296 336.032 106.926 336.032 103.801V78.625H342.712V103.527C342.712 104.1 342.744 104.654 342.809 105.188C342.874 105.708 343.024 106.138 343.259 106.477C343.493 106.815 343.871 106.984 344.391 106.984C344.925 106.984 345.309 106.822 345.544 106.496C345.778 106.158 345.921 105.721 345.973 105.188C346.039 104.654 346.071 104.1 346.071 103.527V78.625H352.751V103.801C352.751 106.926 352.074 109.296 350.72 110.91C349.365 112.512 347.256 113.312 344.391 113.312ZM364.595 113.312C362.108 113.312 360.103 112.538 358.58 110.988C357.069 109.439 356.314 107.271 356.314 104.484V88.625C356.314 85.2917 356.972 82.7396 358.287 80.9688C359.615 79.1979 361.77 78.3125 364.752 78.3125C366.379 78.3125 367.824 78.612 369.087 79.2109C370.364 79.8099 371.366 80.7083 372.095 81.9062C372.824 83.0911 373.189 84.5885 373.189 86.3984V92.3359H366.353V87.2578C366.353 86.2292 366.223 85.5391 365.962 85.1875C365.702 84.8229 365.298 84.6406 364.752 84.6406C364.114 84.6406 363.684 84.875 363.462 85.3438C363.241 85.7995 363.13 86.4115 363.13 87.1797V104.387C363.13 105.337 363.267 106.008 363.541 106.398C363.827 106.789 364.231 106.984 364.752 106.984C365.337 106.984 365.748 106.743 365.982 106.262C366.229 105.78 366.353 105.155 366.353 104.387V98.1953H373.267V104.699C373.267 107.72 372.505 109.914 370.982 111.281C369.459 112.635 367.33 113.312 364.595 113.312ZM364.107 125.324C362.766 125.324 361.477 125.064 360.24 124.543V120.188C360.643 120.318 361.041 120.422 361.431 120.5C361.822 120.591 362.193 120.637 362.545 120.637C363.196 120.637 363.736 120.461 364.166 120.109C364.608 119.771 364.83 119.178 364.83 118.332C364.83 117.603 364.647 116.77 364.283 115.832C363.931 114.895 363.436 113.951 362.798 113H365.943C367.206 114.107 368.183 115.337 368.873 116.691C369.576 118.059 369.927 119.348 369.927 120.559C369.927 121.9 369.465 123.026 368.541 123.938C367.616 124.862 366.138 125.324 364.107 125.324ZM375.834 113L379.155 78.625H390.815L394.077 113H387.573L387.084 107.453H382.944L382.514 113H375.834ZM383.432 101.965H386.557L385.053 84.4844H384.741L383.432 101.965ZM388.159 76.457C387.195 76.457 386.31 76.3073 385.502 76.0078C384.708 75.7083 383.985 75.4154 383.334 75.1289C382.683 74.8294 382.091 74.6797 381.557 74.6797C381.218 74.6797 380.899 74.7773 380.6 74.9727C380.301 75.168 380.021 75.513 379.76 76.0078L376.87 74.4844C377.195 73.6901 377.547 72.9674 377.924 72.3164C378.315 71.6523 378.81 71.125 379.409 70.7344C380.008 70.3307 380.769 70.1289 381.694 70.1289C382.618 70.1289 383.452 70.2656 384.194 70.5391C384.949 70.8125 385.633 71.0859 386.245 71.3594C386.87 71.6328 387.436 71.7695 387.944 71.7695C388.295 71.7695 388.621 71.6589 388.92 71.4375C389.22 71.2161 389.5 70.8385 389.76 70.3047L393.002 71.3594C392.69 72.2318 392.345 73.0586 391.967 73.8398C391.59 74.6211 391.101 75.2526 390.502 75.7344C389.916 76.2161 389.135 76.457 388.159 76.457ZM405.589 113.312C402.842 113.312 400.739 112.486 399.28 110.832C397.835 109.165 397.113 106.763 397.113 103.625V87.2969C397.113 84.3542 397.829 82.1211 399.261 80.5977C400.706 79.0742 402.816 78.3125 405.589 78.3125C408.363 78.3125 410.465 79.0742 411.898 80.5977C413.343 82.1211 414.066 84.3542 414.066 87.2969V103.625C414.066 106.763 413.336 109.165 411.878 110.832C410.433 112.486 408.336 113.312 405.589 113.312ZM405.648 106.984C406.689 106.984 407.21 105.975 407.21 103.957V87.1797C407.21 85.487 406.702 84.6406 405.687 84.6406C404.541 84.6406 403.968 85.5065 403.968 87.2383V103.996C403.968 105.064 404.098 105.832 404.359 106.301C404.619 106.757 405.049 106.984 405.648 106.984Z" fill="white"/>
</g>
<defs>
<filter id="filter0_d_407_8" x="0.9375" y="30.5" width="206.801" height="91.5" filterUnits="userSpaceOnUse" color-interpolation-filters="sRGB">
<feFlood flood-opacity="0" result="BackgroundImageFix"/>
<feColorMatrix in="SourceAlpha" type="matrix" values="0 0 0 0 0 0 0 0 0 0 0 0 0 0 0 0 0 0 127 0" result="hardAlpha"/>
<feOffset dx="5" dy="5"/>
<feGaussianBlur stdDeviation="2"/>
<feComposite in2="hardAlpha" operator="out"/>
<feColorMatrix type="matrix" values="0 0 0 0 0 0 0 0 0 0 0 0 0 0 0 0 0 0 0.25 0"/>
<feBlend mode="normal" in2="BackgroundImageFix" result="effect1_dropShadow_407_8"/>
<feBlend mode="normal" in="SourceGraphic" in2="effect1_dropShadow_407_8" result="shape"/>
</filter>
<filter id="filter1_d_407_8" x="217.25" y="30.3125" width="229.681" height="104.012" filterUnits="userSpaceOnUse" color-interpolation-filters="sRGB">
<feFlood flood-opacity="0" result="BackgroundImageFix"/>
<feColorMatrix in="SourceAlpha" type="matrix" values="0 0 0 0 0 0 0 0 0 0 0 0 0 0 0 0 0 0 127 0" result="hardAlpha"/>
<feOffset dx="5" dy="5"/>
<feGaussianBlur stdDeviation="2"/>
<feComposite in2="hardAlpha" operator="out"/>
<feColorMatrix type="matrix" values="0 0 0 0 0 0 0 0 0 0 0 0 0 0 0 0 0 0 0.25 0"/>
<feBlend mode="normal" in2="BackgroundImageFix" result="effect1_dropShadow_407_8"/>
<feBlend mode="normal" in="SourceGraphic" in2="effect1_dropShadow_407_8" result="shape"/>
</filter>
</defs>
</svg>
